<?xml version="1.0" encoding="utf-8"?>
<!-- Generator: Adobe Illustrator 28.2.0, SVG Export Plug-In . SVG Version: 6.00 Build 0)  -->
<svg version="1.1" id="レイヤー_1" xmlns="http://www.w3.org/2000/svg" xmlns:xlink="http://www.w3.org/1999/xlink" x="0px"
	 y="0px" viewBox="0 0 1024 256" enable-background="new 0 0 1024 256" xml:space="preserve">
<g>
	<path fill="#3B9EA3" d="M344.6396,48.2563c-2.3901-1.8657-6.1982-2.7998-11.4238-2.7998c-2.541,0-5.0786,0.2236-7.6162,0.6719
		c-2.541,0.4478-4.4062,0.8223-5.5996,1.1201v46.1436v32.7041v45.248c0,4.7812,1.1934,8.1758,3.584,10.1924
		c2.3867,2.0156,6.272,3.0234,11.6479,3.0234c2.688,0,5.2256-0.1885,7.6157-0.5596c2.3872-0.375,4.1792-0.7842,5.376-1.2324
		v-56.6719V93.3921V58.6724C348.2236,53.5972,347.0269,50.1255,344.6396,48.2563z"/>
	<path fill="#3B9EA3" d="M458.4297,157.4565c-2.8389,1.6445-6.1602,3.1738-9.9683,4.5918c-3.8081,1.4209-8.4771,2.1279-14,2.1279
		c-9.2607,0-16.7998-2.835-22.624-8.5117c-5.8237-5.6738-8.7358-14.0352-8.7358-25.0879c0-11.2002,3.0239-19.7124,9.0718-25.5361
		c6.0483-5.8242,13.5522-8.7363,22.5122-8.7363c5.2256,0,9.7056,0.6719,13.4399,2.0161c3.731,1.3442,7.0908,2.9121,10.0801,4.7041
		c1.6416-1.1938,3.0591-2.7617,4.2559-4.7041c1.1934-1.939,1.792-4.0322,1.792-6.272c0-5.0752-2.9888-9.3311-8.96-12.7681
		c-5.9746-3.4336-13.8882-5.1519-23.7441-5.1519c-10.3037,0-19.7505,2.0542-28.3359,6.1597
		c-8.5889,4.1094-15.4561,10.3428-20.6079,18.7041c-5.1519,8.3652-7.728,18.8931-7.728,31.5845
		c0,12.2461,2.4258,22.5498,7.2803,30.9121c4.8506,8.3643,11.5708,14.5977,20.1597,18.7031
		c8.5854,4.1055,18.5537,6.1602,29.9043,6.1602c10.0029,0,18.0669-1.6064,24.1919-4.8154c6.1216-3.21,9.1841-7.3535,9.1841-12.4326
		c0-2.6875-0.6372-4.9629-1.9043-6.832C462.4229,160.4067,460.6694,158.8003,458.4297,157.4565z"/>
	<path fill="#3B9EA3" d="M577.8184,83.5361c-3.8848-2.5371-9.1489-4.7388-15.792-6.6079
		c-6.6465-1.8652-13.7759-2.7998-21.3921-2.7998c-11.3501,0-21.3184,2.0542-29.9038,6.1597
		c-8.5889,4.1094-15.3442,10.3813-20.272,18.8164c-4.9282,8.4385-7.3921,19.0044-7.3921,31.6958
		c0,12.5439,2.3135,22.96,6.9438,31.248c4.627,8.2881,10.9761,14.4131,19.04,18.3682s17.1714,5.9355,27.3281,5.9355
		c5.5229,0,10.416-0.5986,14.6719-1.792c2.9108-0.8181,5.481-1.7408,7.728-2.767v30.9916c0,4.7773,1.1938,8.1367,3.584,10.0801
		c2.3872,1.9385,6.1953,2.9111,11.4243,2.9111c2.5371,0,4.9629-0.1885,7.2798-0.5596c2.3135-0.374,4.0669-0.7842,5.2642-1.2324
		v-56.2236v-4.2559V97.8721c0-3.2827-0.7842-6.0825-2.3521-8.3999C582.4106,87.1587,580.356,85.1812,577.8184,83.5361z
		 M540.6343,164.3999c-8.96,0-16.0928-2.6875-21.3916-8.0635c-5.3027-5.376-7.9521-13.8877-7.9521-25.5361
		c0-8.2109,1.2671-14.8574,3.8081-19.936c2.5371-5.0747,6.083-8.8096,10.6396-11.1997c4.5537-2.3872,9.7441-3.5845,15.5684-3.5845
		c3.8813,0,7.2798,0.4482,10.1919,1.3442s5.3374,1.9424,7.2798,3.1357v58.5114c-1.7122,1.1429-3.6895,2.1733-5.936,3.0892
		C549.1816,163.6548,545.1143,164.3999,540.6343,164.3999z"/>
	<path fill="#3B9EA3" d="M709.5293,78.6084c-2.3906-1.792-6.1982-2.688-11.4248-2.688c-2.541,0-4.9658,0.189-7.2793,0.5601
		c-2.3164,0.3745-4.0703,0.7104-5.2637,1.0078v47.4878v10.752v24.416c-1.6455,1.0469-4.1094,2.0166-7.3926,2.9121
		c-3.2861,0.8965-7.3184,1.3438-12.0957,1.3438c-7.3184,0-13.0312-1.7148-17.1367-5.1514
		c-4.1084-3.4336-6.1592-9.1074-6.1592-17.0244v-6.4961v-10.752V88.6885c0-4.9282-1.1973-8.2881-3.584-10.0801
		c-2.3906-1.792-6.1982-2.688-11.4248-2.688c-2.6875,0-5.1514,0.189-7.3916,0.5601c-2.2397,0.3745-3.9585,0.7104-5.1519,1.0078
		v47.4878v10.752v6.9443c0,10.1572,2.0513,18.4795,6.1606,24.9756c4.1055,6.4961,9.9668,11.2393,17.584,14.2246
		c7.6152,2.9854,16.5752,4.4795,26.8789,4.4795c8.5127,0,16.0898-0.8604,22.7363-2.5762
		c6.6426-1.7148,12.1309-3.8428,16.4648-6.3838c3.1348-1.9385,5.2637-4.0664,6.3828-6.3838
		c1.1211-2.3135,1.6807-5.1865,1.6807-8.624V135.728v-10.752V88.6885C713.1133,83.7603,711.916,80.4004,709.5293,78.6084z"/>
	<path fill="#3B9EA3" d="M817.2705,83.4243c-8.6631-6.1948-20.3105-9.2959-34.9443-9.2959c-5.5264,0-11.0879,0.4478-16.6875,1.3438
		c-5.6006,0.896-10.4932,2.3174-14.6729,4.2563c-5.9736,2.541-8.959,6.4956-8.959,11.8716c0,2.2402,0.5947,4.4067,1.791,6.4961
		c1.1943,2.0933,2.5381,3.7344,4.0322,4.9282c4.3301-2.0898,9.2578-3.8818,14.7842-5.376
		c5.5234-1.4912,11.2002-2.2402,17.0244-2.2402c7.4648,0,13.251,1.3442,17.3594,4.0322c4.1055,2.688,6.1602,7.021,6.1602,12.9917
		v4.0322l-30.4639,3.1357c-12.0957,1.1973-21.3184,4.4453-27.6641,9.7441c-6.3496,5.3027-9.5195,12.957-9.5195,22.96
		c0,11.3506,4.2559,19.9014,12.7676,25.6484s20.2334,8.624,35.168,8.624c8.0645,0,15.3057-0.7842,21.7275-2.3525
		c6.4199-1.5674,11.7217-3.5449,15.9043-5.9355c2.6885-1.6416,4.8896-3.5068,6.6084-5.6006
		c1.7148-2.0889,2.5762-4.9277,2.5762-8.5117v-51.5195C830.2627,99.3667,825.9297,89.6226,817.2705,83.4243z M803.3818,161.2642
		c-1.6445,1.0469-4.2559,2.0166-7.8398,2.9121c-3.584,0.8965-7.6152,1.3438-12.0957,1.3438c-7.168,0-12.4707-1.2666-15.9043-3.8076
		c-3.4365-2.5371-5.1514-5.9707-5.1514-10.3037c0-4.1797,1.6025-7.3535,4.8154-9.5205c3.21-2.1631,7.875-3.4717,14-3.9199
		l22.1758-2.2402V161.2642z"/>
	<path fill="#3B9EA3" d="M873.2695,61.1362c4.7773,0,8.624-1.5293,11.5361-4.5918c2.9121-3.0591,4.3682-6.6816,4.3682-10.8643
		c0-4.3296-1.4561-7.9868-4.3682-10.9761c-2.9121-2.9854-6.7588-4.48-11.5361-4.48c-4.6309,0-8.4775,1.4946-11.5361,4.48
		c-3.0625,2.9893-4.5918,6.6465-4.5918,10.9761c0,4.1826,1.5293,7.8052,4.5918,10.8643
		C864.792,59.6069,868.6387,61.1362,873.2695,61.1362z"/>
	<path fill="#3B9EA3" d="M883.5732,79.1685c-2.3906-1.8657-6.1982-2.8003-11.4238-2.8003c-2.6885,0-5.1904,0.189-7.5039,0.5601
		c-2.3174,0.3745-4.0703,0.7842-5.2637,1.2319v45.9204v14.1113v33.6006c0,4.7812,1.2666,8.1025,3.8076,9.9678
		c2.5371,1.8652,6.3457,2.7998,11.4238,2.7998c2.6885,0,5.1523-0.1885,7.3926-0.5596c2.2393-0.375,3.9541-0.7842,5.1514-1.2324
		v-44.5762v-14.1113V89.3604C887.1572,84.4321,885.96,81.0371,883.5732,79.1685z"/>
</g>
<path fill="#3B9EA3" d="M224,0H32C14.3269,0,0,14.3268,0,32v192c0,17.6731,14.3269,32,32,32h192c17.6731,0,32-14.3269,32-32V32
	C256,14.3268,241.6731,0,224,0z M88.4854,184.4854C86.1421,186.8281,83.0713,188,80,188s-6.1421-1.1719-8.4854-3.5146
	c-4.686-4.6865-4.686-12.2842,0-16.9707L111.0293,128L71.5146,88.4854c-4.686-4.6865-4.686-12.2842,0-16.9707
	c4.6865-4.6865,12.2842-4.6865,16.9707,0l48,48c4.6865,4.6865,4.6865,12.2842,0,16.9707L88.4854,184.4854z M176,188h-24
	c-6.627,0-12-5.373-12-12s5.373-12,12-12h24c6.627,0,12,5.373,12,12S182.627,188,176,188z"/>
</svg>
