<svg version="1.1" xmlns="http://www.w3.org/2000/svg" xmlns:xlink="http://www.w3.org/1999/xlink" x="0px"
	 y="0px" viewBox="0 0 192 192" enable-background="new 0 0 192 192" xml:space="preserve">
<g>
	<g>
		<path fill="#5EAF30" d="M96,0C42.9807,0,0,42.9807,0,96s42.9807,96,96,96s96-42.9807,96-96S149.0193,0,96,0z M96,176
			c-44.1828,0-80-35.8173-80-80c0-44.1828,35.8172-80,80-80s80,35.8172,80,80C176,140.1827,140.1828,176,96,176z"/>
	</g>
	<g>
		<path fill="#5EAF30" d="M40.6582,92.8154c6.5903-15.1865,12.2822-28.3018,23.3364-28.3018
			c11.0537,0,16.7456,13.1152,23.3359,28.3018c2.3335,5.377,5.9771,13.7725,8.6582,17.4424
			c2.6812-3.668,6.3228-12.0615,8.6567-17.437c6.5918-15.1919,12.2832-28.3071,23.3379-28.3071
			c11.0234,0.001,16.7119,13.0513,23.2979,28.1616l0.0557,0.1284c2.002,4.6144,4.9595,11.4216,7.4529,15.5899
			C159.5771,104.3829,160,100.2415,160,96c0-35.3463-28.6537-64-64-64S32,60.6537,32,96c0,4.2416,0.4229,8.3831,1.2102,12.394
			C35.7031,104.2264,38.6597,97.4214,40.6582,92.8154z"/>
		<path fill="#5EAF30" d="M136.6641,99.1846l-0.0508-0.1162c-2.3271-5.3403-5.96-13.6748-8.6299-17.3262
			c-2.6816,3.6689-6.3242,12.0649-8.6582,17.4424c-6.5928,15.1895-12.2832,28.3018-23.3364,28.3018
			c-11.0537,0-16.7456-13.1152-23.3359-28.3018c-2.3335-5.3774-5.9771-13.7729-8.6582-17.4424
			c-2.6816,3.6694-6.3252,12.0649-8.6587,17.4424c-5.0038,11.5316-9.4918,21.8624-16.2012,26.1703
			C49.7773,145.9286,71.2386,160,96,160s46.2227-14.0715,56.8653-34.6453C146.1561,121.0468,141.6679,110.7161,136.6641,99.1846z"/>
	</g>
</g>
</svg>
